# Blender 3.1.0
# www.blender.org
mtllib platform1_collision.mtl
o platform1_collision
v -0.000000 -0.203797 -1.504484
v 4.152546 -0.203797 -1.243223
v 8.239605 -0.203797 -0.463583
v 12.196719 -0.203797 0.822161
v 15.961486 -0.203797 2.593727
v 19.474525 -0.203797 4.823168
v 22.680447 -0.203797 7.475336
v 25.528683 -0.203797 10.508400
v 27.974308 -0.203797 13.874521
v 29.978771 -0.203797 17.520618
v 31.510448 -0.203797 21.389194
v 32.545181 -0.203797 25.419231
v 33.066662 -0.203797 29.547180
v 33.066662 -0.203797 33.707935
v 32.545181 -0.203797 37.835884
v 31.510448 -0.203797 41.865921
v 29.978767 -0.203797 45.734497
v 27.974310 -0.203797 49.380596
v 25.528683 -0.203797 52.746716
v 22.680445 -0.203797 55.779778
v 19.474524 -0.203797 58.431946
v 15.961488 -0.203797 60.661388
v 12.196720 -0.203797 62.432957
v 8.239605 -0.203797 63.718697
v 4.152545 -0.203797 64.498344
v -0.000003 -0.203797 64.759598
v -4.152543 -0.203797 64.498344
v -8.239603 -0.203797 63.718697
v -12.196719 -0.203797 62.432957
v -15.961486 -0.203797 60.661388
v -19.474529 -0.203797 58.431946
v -22.680445 -0.203797 55.779778
v -25.528685 -0.203797 52.746712
v -27.974304 -0.203797 49.380604
v -29.978767 -0.203797 45.734501
v -31.510448 -0.203797 41.865925
v -32.545181 -0.203797 37.835884
v -33.066662 -0.203797 33.707935
v -33.066662 -0.203797 29.547178
v -32.545181 -0.203797 25.419228
v -31.510448 -0.203797 21.389191
v -29.978767 -0.203797 17.520615
v -27.974312 -0.203797 13.874527
v -25.528685 -0.203797 10.508404
v -22.680449 -0.203797 7.475340
v -19.474527 -0.203797 4.823170
v -15.961486 -0.203797 2.593727
v -12.196719 -0.203797 0.822161
v -8.239602 -0.203797 -0.463583
v -4.152542 -0.203797 -1.243223
v -0.000000 0.222097 -0.436132
v 4.018646 0.222097 -0.183306
v 7.973917 0.222097 0.571203
v 11.803432 0.222097 1.815485
v 15.446805 0.222097 3.529930
v 18.846565 0.222097 5.687483
v 21.949110 0.222097 8.254129
v 24.705505 0.222097 11.189390
v 27.072271 0.222097 14.446970
v 29.012100 0.222097 17.975498
v 30.494389 0.222097 21.719332
v 31.495760 0.222097 25.619419
v 32.000427 0.222097 29.614262
v 32.000427 0.222097 33.640854
v 31.495760 0.222097 37.635696
v 30.494389 0.222097 41.535786
v 29.012096 0.222097 45.279617
v 27.072273 0.222097 48.808144
v 24.705505 0.222097 52.065727
v 21.949108 0.222097 55.000984
v 18.846563 0.222097 57.567635
v 15.446807 0.222097 59.725185
v 11.803433 0.222097 61.439629
v 7.973917 0.222097 62.683910
v 4.018645 0.222097 63.438423
v -0.000003 0.222097 63.691246
v -4.018644 0.222097 63.438423
v -7.973915 0.222097 62.683910
v -11.803432 0.222097 61.439629
v -15.446805 0.222097 59.725185
v -18.846569 0.222097 57.567631
v -21.949108 0.222097 55.000984
v -24.705507 0.222097 52.065720
v -27.072268 0.222097 48.808151
v -29.012096 0.222097 45.279621
v -30.494389 0.222097 41.535786
v -31.495760 0.222097 37.635696
v -32.000427 0.222097 33.640854
v -32.000427 0.222097 29.614260
v -31.495760 0.222097 25.619417
v -30.494389 0.222097 21.719326
v -29.012096 0.222097 17.975494
v -27.072275 0.222097 14.446974
v -24.705507 0.222097 11.189394
v -21.949114 0.222097 8.254131
v -18.846567 0.222097 5.687485
v -15.446805 0.222097 3.529930
v -11.803432 0.222097 1.815485
v -7.973914 0.222097 0.571203
v -4.018643 0.222097 -0.183306
vn 0.3449 0.9287 -0.1366
vn -0.0000 1.0000 -0.0000
vn 0.2704 0.9287 0.2539
vn -0.1146 0.9287 0.3528
vn -0.3680 0.9287 0.0465
vn -0.1988 0.9287 -0.3132
vn 0.2364 0.9287 -0.2858
vn 0.3593 0.9287 0.0922
vn 0.0695 0.9287 0.3644
vn -0.3001 0.9287 0.2180
vn -0.3251 0.9287 -0.1787
vn 0.0695 0.9287 -0.3644
vn 0.3593 0.9287 -0.0922
vn 0.2364 0.9287 0.2858
vn -0.1579 0.9287 0.3356
vn -0.3709 0.9287 -0.0000
vn -0.1579 0.9287 -0.3356
vn 0.2704 0.9287 -0.2539
vn 0.3449 0.9287 0.1366
vn 0.0233 0.9287 0.3702
vn -0.3251 0.9287 0.1787
vn -0.3001 0.9287 -0.2180
vn 0.1146 0.9287 -0.3528
vn 0.3680 0.9287 -0.0465
vn 0.1988 0.9287 0.3132
vn -0.1988 0.9287 0.3132
vn -0.3680 0.9287 -0.0465
vn -0.1146 0.9287 -0.3528
vn 0.3001 0.9287 -0.2180
vn 0.3251 0.9287 0.1787
vn -0.0233 0.9287 0.3702
vn -0.3449 0.9287 0.1366
vn -0.2704 0.9287 -0.2539
vn 0.1579 0.9287 -0.3356
vn 0.3709 0.9287 -0.0000
vn 0.1579 0.9287 0.3356
vn -0.2364 0.9287 0.2858
vn -0.3593 0.9287 -0.0922
vn -0.0695 0.9287 -0.3644
vn 0.3251 0.9287 -0.1787
vn 0.3001 0.9287 0.2180
vn -0.0695 0.9287 0.3644
vn -0.3593 0.9287 0.0922
vn -0.2364 0.9287 -0.2858
vn 0.1988 0.9287 -0.3132
vn 0.3680 0.9287 0.0465
vn 0.1146 0.9287 0.3528
vn 0.0233 0.9287 -0.3702
vn -0.2704 0.9287 0.2539
vn -0.3449 0.9287 -0.1366
vn -0.0233 0.9287 -0.3702
vt 0.302153 0.950420
vt 0.049410 0.950420
vt 0.297098 0.950420
vt 0.292043 0.950420
vt 0.286988 0.950420
vt 0.281934 0.950420
vt 0.276879 0.950420
vt 0.271824 0.950420
vt 0.266769 0.950420
vt 0.261714 0.950420
vt 0.256659 0.950420
vt 0.251604 0.950420
vt 0.246550 0.950420
vt 0.241495 0.950420
vt 0.236440 0.950420
vt 0.231385 0.950420
vt 0.226330 0.950420
vt 0.221275 0.950420
vt 0.216220 0.950420
vt 0.211166 0.950420
vt 0.206111 0.950420
vt 0.201056 0.950420
vt 0.196001 0.950420
vt 0.190946 0.950420
vt 0.185891 0.950420
vt 0.180836 0.950420
vt 0.175782 0.950420
vt 0.170727 0.950420
vt 0.165672 0.950420
vt 0.160617 0.950420
vt 0.155562 0.950420
vt 0.150507 0.950420
vt 0.145452 0.950420
vt 0.140397 0.950420
vt 0.135343 0.950420
vt 0.130288 0.950420
vt 0.125233 0.950420
vt 0.120178 0.950420
vt 0.115123 0.950420
vt 0.110068 0.950420
vt 0.105013 0.950420
vt 0.099959 0.950420
vt 0.094904 0.950420
vt 0.089849 0.950420
vt 0.084794 0.950420
vt 0.079739 0.950420
vt 0.074684 0.950420
vt 0.069629 0.950420
vt 0.064574 0.950420
vt 0.059520 0.950420
vt 0.054465 0.950420
vt 0.302153 0.950420
vt 0.049410 0.950420
vt 0.297098 0.950420
vt 0.292043 0.950420
vt 0.286988 0.950420
vt 0.281934 0.950420
vt 0.276879 0.950420
vt 0.271824 0.950420
vt 0.266769 0.950420
vt 0.261714 0.950420
vt 0.256659 0.950420
vt 0.251604 0.950420
vt 0.246550 0.950420
vt 0.241495 0.950420
vt 0.236440 0.950420
vt 0.231385 0.950420
vt 0.226330 0.950420
vt 0.221275 0.950420
vt 0.216220 0.950420
vt 0.211166 0.950420
vt 0.206111 0.950420
vt 0.201056 0.950420
vt 0.196001 0.950420
vt 0.190946 0.950420
vt 0.185891 0.950420
vt 0.180836 0.950420
vt 0.175782 0.950420
vt 0.170727 0.950420
vt 0.165672 0.950420
vt 0.160617 0.950420
vt 0.155562 0.950420
vt 0.150507 0.950420
vt 0.145452 0.950420
vt 0.140397 0.950420
vt 0.135343 0.950420
vt 0.130288 0.950420
vt 0.125233 0.950420
vt 0.120178 0.950420
vt 0.115123 0.950420
vt 0.110068 0.950420
vt 0.105013 0.950420
vt 0.099959 0.950420
vt 0.094904 0.950420
vt 0.089849 0.950420
vt 0.084794 0.950420
vt 0.079739 0.950420
vt 0.074684 0.950420
vt 0.069629 0.950420
vt 0.064574 0.950420
vt 0.059520 0.950420
vt 0.054465 0.950420
s 0
usemtl platform1
f 11/12/1 10/11/1 60/62/1 61/63/1
f 100/102/2 99/101/2 98/100/2 97/99/2 96/98/2 95/97/2 94/96/2 93/95/2 92/94/2 91/93/2 90/92/2 89/91/2 88/90/2 87/89/2 86/88/2 85/87/2 84/86/2 83/85/2 82/84/2 81/83/2 80/82/2 79/81/2 78/80/2 77/79/2 76/78/2 75/77/2 74/76/2 73/75/2 72/74/2 71/73/2 70/72/2 69/71/2 68/70/2 67/69/2 66/68/2 65/67/2 64/66/2 63/65/2 62/64/2 61/63/2 60/62/2 59/61/2 58/60/2 57/59/2 56/58/2 55/57/2 54/56/2 53/55/2 52/54/2 51/53/2
f 20/21/3 19/20/3 69/71/3 70/72/3
f 29/30/4 28/29/4 78/80/4 79/81/4
f 38/39/5 37/38/5 87/89/5 88/90/5
f 47/48/6 46/47/6 96/98/6 97/99/6
f 7/8/7 6/7/7 56/58/7 57/59/7
f 16/17/8 15/16/8 65/67/8 66/68/8
f 25/26/9 24/25/9 74/76/9 75/77/9
f 34/35/10 33/34/10 83/85/10 84/86/10
f 43/44/11 42/43/11 92/94/11 93/95/11
f 3/4/12 2/3/12 52/54/12 53/55/12
f 12/13/13 11/12/13 61/63/13 62/64/13
f 21/22/14 20/21/14 70/72/14 71/73/14
f 30/31/15 29/30/15 79/81/15 80/82/15
f 39/40/16 38/39/16 88/90/16 89/91/16
f 48/49/17 47/48/17 97/99/17 98/100/17
f 8/9/18 7/8/18 57/59/18 58/60/18
f 17/18/19 16/17/19 66/68/19 67/69/19
f 26/27/20 25/26/20 75/77/20 76/78/20
f 35/36/21 34/35/21 84/86/21 85/87/21
f 44/45/22 43/44/22 93/95/22 94/96/22
f 4/5/23 3/4/23 53/55/23 54/56/23
f 13/14/24 12/13/24 62/64/24 63/65/24
f 22/23/25 21/22/25 71/73/25 72/74/25
f 31/32/26 30/31/26 80/82/26 81/83/26
f 40/41/27 39/40/27 89/91/27 90/92/27
f 49/50/28 48/49/28 98/100/28 99/101/28
f 9/10/29 8/9/29 58/60/29 59/61/29
f 18/19/30 17/18/30 67/69/30 68/70/30
f 27/28/31 26/27/31 76/78/31 77/79/31
f 36/37/32 35/36/32 85/87/32 86/88/32
f 45/46/33 44/45/33 94/96/33 95/97/33
f 5/6/34 4/5/34 54/56/34 55/57/34
f 14/15/35 13/14/35 63/65/35 64/66/35
f 23/24/36 22/23/36 72/74/36 73/75/36
f 32/33/37 31/32/37 81/83/37 82/84/37
f 41/42/38 40/41/38 90/92/38 91/93/38
f 50/51/39 49/50/39 99/101/39 100/102/39
f 10/11/40 9/10/40 59/61/40 60/62/40
f 19/20/41 18/19/41 68/70/41 69/71/41
f 28/29/42 27/28/42 77/79/42 78/80/42
f 37/38/43 36/37/43 86/88/43 87/89/43
f 46/47/44 45/46/44 95/97/44 96/98/44
f 6/7/45 5/6/45 55/57/45 56/58/45
f 15/16/46 14/15/46 64/66/46 65/67/46
f 24/25/47 23/24/47 73/75/47 74/76/47
f 2/3/48 1/1/48 51/52/48 52/54/48
f 33/34/49 32/33/49 82/84/49 83/85/49
f 42/43/50 41/42/50 91/93/50 92/94/50
f 1/2/51 50/51/51 100/102/51 51/53/51
